<?xml version="1.0" encoding="UTF-8"?>
<svg xmlns="http://www.w3.org/2000/svg" xmlns:xlink="http://www.w3.org/1999/xlink" width="95px" height="28px" viewBox="0 0 95 28" version="1.1">
<g id="surface1">
<path style=" stroke:none;fill-rule:evenodd;fill:rgb(20%,36.078432%,100%);fill-opacity:1;" d="M 27.398438 2.15625 C 26.367188 0.191406 22.972656 0.808594 20.039062 1.59375 C 7.289062 6.292969 2.78125 15.84375 1.195312 21.53125 C 1.113281 21.679688 1.070312 21.84375 1.066406 22.011719 C 0.4375 24.425781 0.351562 26.035156 0.351562 26.085938 C 0.328125 26.664062 0.777344 27.152344 1.355469 27.175781 C 1.371094 27.179688 1.386719 27.179688 1.402344 27.179688 C 1.960938 27.179688 2.425781 26.738281 2.449219 26.175781 C 2.457031 26.003906 2.523438 24.828125 2.917969 23.074219 C 6.429688 22.925781 9.964844 21.617188 13.4375 19.175781 C 13.707031 18.984375 13.871094 18.675781 13.882812 18.347656 C 13.890625 18.015625 13.746094 17.699219 13.484375 17.492188 L 11.882812 16.226562 L 17.140625 15.710938 C 17.351562 15.691406 17.554688 15.605469 17.71875 15.464844 C 19.574219 13.859375 21.351562 12.175781 23.050781 10.40625 C 26.925781 6.347656 28.261719 3.804688 27.398438 2.15625 Z M 21.179688 25.078125 L 12.203125 25.078125 C 11.625 25.078125 11.152344 25.550781 11.152344 26.128906 C 11.152344 26.710938 11.625 27.179688 12.203125 27.179688 L 21.179688 27.179688 C 21.757812 27.179688 22.226562 26.710938 22.226562 26.128906 C 22.226562 25.550781 21.757812 25.078125 21.179688 25.078125 Z M 21.179688 25.078125 "/>
<path style=" stroke:none;fill-rule:nonzero;fill:rgb(5.490196%,7.058824%,10.588235%);fill-opacity:1;" d="M 43.335938 23.613281 C 42.769531 23.613281 42.363281 23.492188 42.117188 23.246094 C 41.871094 22.988281 41.75 22.503906 41.75 21.796875 C 41.75 21.324219 41.796875 20.746094 41.886719 20.074219 C 41.980469 19.398438 42.140625 18.378906 42.371094 17.015625 L 42.738281 14.78125 C 42.953125 13.464844 43.144531 12.085938 43.3125 10.644531 C 43.464844 9.414062 43.542969 8.496094 43.542969 7.882812 C 43.542969 7.191406 43.289062 6.847656 42.785156 6.847656 C 42.402344 6.847656 41.917969 7.054688 41.335938 7.46875 C 40.769531 7.867188 40.15625 8.511719 39.496094 9.402344 C 39.28125 9.691406 39.042969 9.839844 38.78125 9.839844 C 38.566406 9.839844 38.375 9.738281 38.207031 9.539062 C 38.054688 9.332031 37.976562 9.082031 37.976562 8.824219 C 37.976562 8.566406 38.023438 8.320312 38.113281 8.089844 C 38.207031 7.84375 38.375 7.554688 38.621094 7.214844 C 39.371094 6.1875 40.207031 5.398438 41.128906 4.847656 C 42.046875 4.28125 43.015625 3.996094 44.027344 3.996094 C 44.867188 3.996094 45.496094 4.257812 45.910156 4.777344 C 46.34375 5.300781 46.554688 6.058594 46.554688 7.054688 C 46.554688 7.945312 46.433594 9.230469 46.1875 10.917969 C 46.953125 8.648438 47.929688 6.933594 49.109375 5.765625 C 50.289062 4.585938 51.675781 3.996094 53.273438 3.996094 C 54.527344 3.996094 55.472656 4.355469 56.101562 5.078125 C 56.746094 5.78125 57.066406 6.734375 57.066406 7.929688 C 57.066406 8.605469 56.96875 9.425781 56.769531 10.390625 L 55.363281 16.96875 C 55.210938 17.734375 55.136719 18.394531 55.136719 18.945312 C 55.136719 19.589844 55.28125 20.074219 55.570312 20.394531 C 55.878906 20.71875 56.300781 20.878906 56.835938 20.878906 C 57.34375 20.878906 57.835938 20.710938 58.308594 20.371094 C 58.800781 20.035156 59.375 19.476562 60.035156 18.691406 C 60.21875 18.476562 60.425781 18.371094 60.65625 18.371094 C 60.855469 18.371094 61.007812 18.464844 61.113281 18.648438 C 61.238281 18.832031 61.300781 19.085938 61.300781 19.40625 C 61.300781 20.003906 61.152344 20.480469 60.863281 20.832031 C 60.066406 21.796875 59.273438 22.503906 58.492188 22.949219 C 57.746094 23.382812 56.898438 23.613281 56.03125 23.613281 C 54.730469 23.613281 53.710938 23.230469 52.972656 22.464844 C 52.238281 21.683594 51.867188 20.640625 51.867188 19.335938 C 51.867188 18.832031 51.90625 18.277344 51.984375 17.679688 C 52.074219 17.082031 52.222656 16.324219 52.421875 15.402344 L 53.339844 11.195312 L 53.503906 10.460938 C 53.578125 10.105469 53.640625 9.777344 53.6875 9.46875 C 53.730469 9.148438 53.753906 8.835938 53.753906 8.527344 C 53.753906 8.035156 53.617188 7.644531 53.339844 7.355469 C 53.066406 7.0625 52.675781 6.917969 52.167969 6.917969 C 51.246094 6.917969 50.328125 7.40625 49.40625 8.390625 C 48.488281 9.371094 47.636719 10.957031 46.855469 13.148438 C 46.074219 15.328125 45.460938 18.117188 45.015625 21.523438 C 44.90625 22.304688 44.746094 22.847656 44.53125 23.15625 C 44.332031 23.460938 43.933594 23.613281 43.335938 23.613281 Z M 70.699219 16.4375 C 70.902344 16.4375 71.054688 16.539062 71.160156 16.738281 C 71.269531 16.9375 71.320312 17.191406 71.320312 17.496094 C 71.320312 18.234375 71.101562 18.671875 70.65625 18.808594 C 69.734375 19.128906 68.722656 19.3125 67.617188 19.359375 C 67.328125 20.648438 66.753906 21.683594 65.894531 22.464844 C 65.035156 23.230469 64.0625 23.613281 62.972656 23.613281 C 62.054688 23.613281 61.265625 23.394531 60.605469 22.949219 C 59.960938 22.503906 59.449219 21.890625 59.132812 21.175781 C 58.792969 20.425781 58.617188 19.609375 58.625 18.785156 C 58.625 17.621094 58.847656 16.585938 59.292969 15.679688 C 59.738281 14.761719 60.351562 14.046875 61.132812 13.539062 C 61.902344 13.023438 62.808594 12.75 63.734375 12.757812 C 64.898438 12.757812 65.832031 13.164062 66.539062 13.976562 C 67.257812 14.773438 67.679688 15.765625 67.804688 16.945312 C 68.523438 16.898438 69.382812 16.746094 70.378906 16.484375 C 70.503906 16.453125 70.609375 16.4375 70.699219 16.4375 Z M 63.15625 21.175781 C 63.648438 21.175781 64.070312 20.976562 64.421875 20.578125 C 64.789062 20.179688 65.035156 19.605469 65.15625 18.855469 C 64.6875 18.535156 64.304688 18.101562 64.054688 17.589844 C 63.808594 17.070312 63.683594 16.503906 63.6875 15.933594 C 63.6875 15.6875 63.710938 15.441406 63.757812 15.195312 L 63.640625 15.195312 C 63.027344 15.195312 62.511719 15.496094 62.101562 16.09375 C 61.699219 16.675781 61.5 17.503906 61.5 18.578125 C 61.5 19.421875 61.660156 20.066406 61.984375 20.511719 C 62.320312 20.953125 62.710938 21.175781 63.15625 21.175781 Z M 79.730469 18.371094 C 79.929688 18.371094 80.082031 18.464844 80.191406 18.648438 C 80.3125 18.832031 80.375 19.085938 80.375 19.40625 C 80.375 20.019531 80.226562 20.496094 79.9375 20.832031 C 79.320312 21.605469 78.59375 22.277344 77.773438 22.832031 C 76.992188 23.355469 76.097656 23.613281 75.085938 23.613281 C 71.957031 23.613281 70.390625 21.414062 70.390625 17.015625 C 70.390625 16.339844 70.414062 15.65625 70.460938 14.96875 L 69.5625 14.96875 C 69.105469 14.96875 68.789062 14.882812 68.621094 14.714844 C 68.46875 14.546875 68.390625 14.277344 68.390625 13.910156 C 68.390625 13.050781 68.734375 12.621094 69.425781 12.621094 L 70.738281 12.621094 C 70.996094 10.933594 71.398438 9.394531 71.933594 7.996094 C 72.46875 6.601562 73.113281 5.492188 73.863281 4.664062 C 74.632812 3.835938 75.453125 3.421875 76.324219 3.421875 C 76.96875 3.421875 77.476562 3.703125 77.84375 4.273438 C 78.210938 4.839844 78.394531 5.550781 78.394531 6.410156 C 78.394531 8.789062 77.398438 10.859375 75.40625 12.621094 L 77.980469 12.621094 C 78.226562 12.621094 78.402344 12.675781 78.511719 12.78125 C 78.617188 12.890625 78.671875 13.089844 78.671875 13.378906 C 78.671875 14.4375 77.804688 14.96875 76.074219 14.96875 L 73.265625 14.96875 C 73.238281 15.734375 73.222656 16.332031 73.222656 16.761719 C 73.222656 18.355469 73.40625 19.476562 73.773438 20.117188 C 74.15625 20.761719 74.753906 21.085938 75.566406 21.085938 C 76.226562 21.085938 76.808594 20.886719 77.316406 20.488281 C 77.820312 20.089844 78.417969 19.488281 79.109375 18.691406 C 79.292969 18.476562 79.5 18.371094 79.730469 18.371094 Z M 75.703125 5.628906 C 75.476562 5.628906 75.214844 5.921875 74.921875 6.503906 C 74.648438 7.070312 74.378906 7.867188 74.117188 8.894531 C 73.855469 10.011719 73.648438 11.140625 73.496094 12.277344 C 74.402344 11.492188 75.074219 10.621094 75.519531 9.652344 C 75.980469 8.671875 76.210938 7.785156 76.210938 6.984375 C 76.210938 6.082031 76.042969 5.628906 75.703125 5.628906 Z M 88.300781 18.371094 C 88.5 18.371094 88.652344 18.464844 88.761719 18.648438 C 88.882812 18.832031 88.945312 19.085938 88.945312 19.40625 C 88.945312 20.019531 88.800781 20.496094 88.507812 20.832031 C 87.941406 21.523438 87.136719 22.15625 86.09375 22.742188 C 85.085938 23.320312 83.941406 23.621094 82.78125 23.613281 C 81.171875 23.613281 79.921875 23.179688 79.03125 22.304688 C 78.140625 21.429688 77.695312 20.234375 77.695312 18.714844 C 77.695312 17.65625 77.921875 16.675781 78.363281 15.773438 C 78.808594 14.851562 79.421875 14.125 80.203125 13.585938 C 81 13.050781 81.9375 12.769531 82.894531 12.78125 C 83.785156 12.78125 84.496094 13.050781 85.035156 13.585938 C 85.570312 14.109375 85.839844 14.820312 85.839844 15.726562 C 85.839844 16.785156 85.457031 17.695312 84.6875 18.464844 C 83.9375 19.214844 82.65625 19.8125 80.847656 20.257812 C 81.230469 20.960938 81.960938 21.316406 83.03125 21.316406 C 83.722656 21.316406 84.503906 21.078125 85.378906 20.601562 C 86.261719 20.117188 87.039062 19.46875 87.679688 18.691406 C 87.863281 18.476562 88.070312 18.371094 88.300781 18.371094 Z M 82.503906 15.035156 C 81.9375 15.035156 81.453125 15.367188 81.054688 16.023438 C 80.671875 16.683594 80.480469 17.480469 80.480469 18.417969 L 80.480469 18.464844 C 81.386719 18.246094 82.097656 17.925781 82.621094 17.496094 C 83.140625 17.066406 83.402344 16.570312 83.402344 16.003906 C 83.402344 15.710938 83.316406 15.480469 83.148438 15.3125 C 82.996094 15.128906 82.78125 15.035156 82.503906 15.035156 Z M 90.890625 24.121094 C 90.09375 24.121094 89.480469 23.9375 89.050781 23.570312 C 88.636719 23.199219 88.429688 22.785156 88.429688 22.328125 C 88.429688 21.929688 88.574219 21.582031 88.867188 21.292969 C 89.15625 21 89.585938 20.855469 90.152344 20.855469 C 90.351562 20.855469 90.582031 20.878906 90.84375 20.925781 L 91.464844 20.992188 C 91.449219 20.601562 91.355469 20.21875 91.1875 19.867188 C 91.03125 19.503906 90.832031 19.164062 90.589844 18.855469 C 90.375 18.550781 90.144531 18.261719 89.902344 17.980469 C 89.425781 18.886719 88.949219 19.636719 88.476562 20.234375 C 88.015625 20.832031 87.507812 21.398438 86.957031 21.9375 C 86.679688 22.210938 86.390625 22.351562 86.082031 22.351562 C 85.855469 22.359375 85.636719 22.265625 85.484375 22.097656 C 85.332031 21.910156 85.25 21.671875 85.253906 21.429688 C 85.253906 21.121094 85.363281 20.839844 85.578125 20.578125 L 85.875 20.210938 C 86.71875 19.167969 87.355469 18.308594 87.785156 17.636719 C 88.0625 17.191406 88.335938 16.660156 88.613281 16.046875 C 88.902344 15.433594 89.28125 14.597656 89.738281 13.539062 C 90.03125 12.867188 90.636719 12.527344 91.558594 12.527344 C 91.984375 12.527344 92.285156 12.566406 92.453125 12.644531 C 92.621094 12.722656 92.707031 12.84375 92.707031 13.011719 C 92.707031 13.105469 92.675781 13.25 92.613281 13.449219 C 92.554688 13.648438 92.46875 13.847656 92.363281 14.046875 C 92.085938 14.597656 91.949219 15.066406 91.949219 15.449219 C 91.949219 15.679688 92.023438 15.933594 92.179688 16.210938 C 92.347656 16.484375 92.597656 16.828125 92.9375 17.242188 C 93.425781 17.886719 93.796875 18.441406 94.039062 18.898438 C 94.300781 19.34375 94.429688 19.835938 94.429688 20.371094 C 94.429688 21.015625 94.277344 21.628906 93.972656 22.210938 C 93.683594 22.773438 93.257812 23.25 92.730469 23.59375 C 92.191406 23.945312 91.578125 24.121094 90.890625 24.121094 Z M 90.890625 24.121094 "/>
</g>
</svg>
